<?xml version="1.0" encoding="utf-8"?>
<!-- Generator: Adobe Illustrator 16.0.0, SVG Export Plug-In . SVG Version: 6.00 Build 0)  -->
<!DOCTYPE svg PUBLIC "-//W3C//DTD SVG 1.1//EN" "http://www.w3.org/Graphics/SVG/1.1/DTD/svg11.dtd">
<svg version="1.1" id="Layer_1" xmlns="http://www.w3.org/2000/svg" xmlns:xlink="http://www.w3.org/1999/xlink" x="0px" y="0px"
	 width="226.892px" height="72.79px" viewBox="0 0 226.892 72.79" enable-background="new 0 0 226.892 72.79" xml:space="preserve">
<path fill="#3A7C35" d="M51.212,0h4.4c5.04,0.61,10.51,2.45,13.35,6.96c1.53,2.15,1.02,4.86,0.83,7.3c2.13,2.16,4.48,4.54,4.57,7.78
	c0.5,3.21-1.27,6.06-2.97,8.6c0.89,2.2,2.53,4.67,1.18,7.06c-1.84,3.729-5.94,5.64-9.77,6.68c-8.26,2.05-17.85,1.25-24.56-4.42
	c-0.08-4.78-0.43-9.56-1.39-14.25c-1.42,4.15-1.89,8.52-2.18,12.87c-2.13-0.03-4.26-0.061-6.39-0.07
	c-3.69,2.99-8.58,3.33-12.98,1.891c-4.81-1.561-12.41,0.35-13.535-3.275l-1.062-1.562c0,0-2.625-4.25,2.257-6.123
	c-0.71-1.44-1.43-2.89-2.07-4.37v-1.9c1.75-9.27,8.95-17.15,17.79-20.27c7.33-2.63,15.31-2.77,22.94-1.67
	C44.892,1.79,48.022,0.48,51.212,0z"/>
<path fill="#3A7C35" d="M142.783,8.99c6.959-6.35,17.129-6.93,26.08-6.45c6.149,0.73,13.35,1.74,17.469,6.89
	c1.99,2.42,0.07,5.23-1.539,7.18c1.879,1.81,3.49,3.88,4.629,6.23c3.211,1.53,7.131,2.75,8.781,6.21
	c1.26,2.84-1.061,5.58-3.351,6.99c-5.17,3.21-11.39,4.03-17.34,4.351c1.489-1.49,2.92-3.041,4.31-4.631
	c-2.939,1.23-5.82,2.6-8.41,4.46c-2.949-0.09-5.899-0.06-8.83,0.16c1.58-3.54,3.49-6.91,5.34-10.31
	c-4.149,3.16-7.979,6.81-10.829,11.21c-3.4,0.11-6.8,0.149-10.2,0.12c-2.779-5.021-6.561-9.5-11.32-12.75
	c1.74,4.13,3.84,8.1,5.66,12.19c-3.41-0.25-6.869-1.98-10.25-0.8c-7.15,2.12-15.17,2.021-22-1.13c-2.57-1.23-5.49-3.81-4.44-6.97
	c1.66-3.84,6.12-4.72,9.54-6.29c0.5-5.62,4.94-9.6,9.781-11.83C131.142,11.17,136.982,9.91,142.783,8.99z"/>
<path fill="#603A17" d="M34.672,38.58c0.29-4.35,0.76-8.72,2.18-12.87c0.96,4.69,1.31,9.47,1.39,14.25
	c-0.13,10.931,0.29,21.899-0.5,32.81C33.382,61.95,33.792,50,34.672,38.58z"/>
<path fill="#603A17" d="M137.572,28.65c4.76,3.25,8.541,7.73,11.32,12.75c2.561,4.529,3.84,9.63,4.62,14.74
	c0.69-5.311,2.56-10.431,5.58-14.86c2.85-4.4,6.68-8.05,10.829-11.21c-1.85,3.4-3.76,6.77-5.34,10.31
	c-3.26,6.83-5.109,14.181-7.67,21.271c0.351-0.131,0.701-0.271,1.061-0.41c2.99-8.301,8.43-15.67,15.439-21.021
	c2.59-1.86,5.471-3.229,8.41-4.46c-1.39,1.59-2.82,3.141-4.31,4.631c-6.841,6.079-12.29,13.52-16.78,21.459
	c-2.029,3.431-3.76,7.08-6.279,10.2c-0.34-0.86-1.041-2.59-1.381-3.45c-0.289,0.891-2.264,3.251-2.555,4.15
	c-2.5-8-2.725-21.96-7.285-31.91C141.412,36.75,139.312,32.78,137.572,28.65z"/>
<path fill="#603A17" d="M80.173,50.812c0.359-0.281,1.117-0.219,1.531-0.094c0.375,0.113,0.969,0.75,0.969,1.219
	c0,0.395,0.38,0.379,0.689,0.502c-0.139,0.159-0.877-0.002-0.877-0.002s0.054,0.525-0.062,0.906
	c-0.09,0.296-0.359,0.672-0.734,0.594c-0.109-0.022-0.087,0.3-0.125,0.344c0.018,0.074,0.578,0.016,0.656,0.625
	c0.021,0.164-0.018-0.074,0,0c0.288,1.213,0.304,2.144,0.562,3.363c1.22-0.459,2.44-0.91,3.66-1.359
	c-0.026,1.318-1.53,1.317-1.883,1.572c-0.508,0.367-0.184,0.241-0.854,0.5c-0.06,0.022-0.711,0.18-0.938-0.084
	c0.29,0.91,0.855,2.731,1.145,3.642l-1.51,0.021c0,2.688-2.135,6.228-1.155,8.672c0.137,0.341,1.646,0.418,2,0.688
	c0.356,0.271,0.105,0.78,0.105,0.78s-3.05-0.351-4.06-0.47c0.09-0.771,0.28-2.311,0.37-3.07c-0.325,0.461-0.955,0.736-1.416,1.405
	c-0.119,0.173,0.878,1.837,0.583,1.854c-0.188,0.562-1.188-0.562-1.188-0.562s-0.229-0.354-0.75-0.688s-0.354-0.646-0.354-0.646
	c0,0,0.48-0.442,0.979-0.979c0.882-0.947,2.16-2.553,2.335-3.615c-0.15-1.189-0.43-2.359-0.7-3.52
	c-3.31,0.99-3.916-3.832-3.916-3.832s-0.363-2.614,0.188-3.625c0-0.406,1.25-0.75,1.25-0.75s1.381-0.161,1.428,0.761
	c0.007,0.136,0.541,1.052,0.43-0.218c-0.039-0.442,0.794-0.684,1.049-0.559c0.348,0.172,0.154-0.451,0.203-0.859
	c0.06-0.493-0.21-1.115-0.156-1.578C79.68,51.288,79.994,50.953,80.173,50.812z"/>
<path fill="#603A17" d="M99.602,58.37c2.08-1.83,3.91-3.9,5.62-6.08c-0.08,1.46-0.16,2.93-0.25,4.39c1.33,0.08,2.65,0.23,3.97,0.471
	c-0.02,2.189-2.76,0.89-4.1,1.289c0.05,3.511-0.51,7.101,0.26,10.561c0.46,2.2,4.04-0.66,4.12,1.5c-1.97,1.24-5.42,2.85-6.74-0.05
	c-0.61-3.99-0.11-8.05-0.07-12.07C101.712,58.38,100.302,58.37,99.602,58.37z"/>
<path fill="#603A17" d="M40.252,58.99c2.07-1.03,4.19-1.95,6.3-2.9c-0.1,0.75-0.3,2.26-0.4,3.02c1.53-1.029,2.82-2.819,4.85-2.81
	c2.18-0.44,4.57,1.3,4.48,3.601c0.18,3.33,0,6.68,0.15,10.01c1.03,0.58,2.05,1.18,3.06,1.8c-2.89,0.05-5.79,0.04-8.68,0.07
	c0.91-0.681,1.84-1.33,2.79-1.97c0.01-3.601,1.18-7.711-0.87-10.951c-2.31-1.369-5.5,0.641-5.58,3.23
	c-0.25,2.51-0.07,5.04-0.04,7.561c1.02,0.68,2.05,1.369,3.05,2.08c-2.9,0.01-5.8,0.029-8.69,0.05c0.95-0.66,1.93-1.3,2.9-1.94
	c0.11-3.529,0.12-7.06,0.05-10.59C42.782,59.189,41.092,59.061,40.252,58.99z"/>
<path fill="#603A17" d="M67.612,56.71c2.11,0.021,4.22,0.05,6.33,0.101c-0.84,0.6-1.7,1.18-2.55,1.77
	c-2.12,4.689-3.5,9.7-6.02,14.21c-2.93-5.271-3.37-12.181-8.34-16.101c2.68,0.07,5.35,0.061,8.03,0.101
	c-0.62,0.39-1.85,1.18-2.47,1.58c1.03,3.149,2.17,6.26,3.5,9.29c1.18-2.98,2.3-5.99,3.43-9C68.882,58.01,68.242,57.359,67.612,56.71
	z"/>
<path fill="#603A17" d="M90.872,56.9c2.58-1.49,5.59-0.521,8.28,0.069c-0.42,1.75-0.87,3.5-1.34,5.25c-0.93-1.76-1.34-4.52-3.86-4.6
	c-5.65-0.12-6.41,8.31-2.78,11.3c2.45,2.09,5.55,0.01,8.18-0.57c-1.94,3.17-6.43,5.15-9.82,3.03
	C84.492,68.08,85.532,59.4,90.872,56.9z"/>
<path fill="#603A17" d="M128.572,59.95c1.16-4.261,6.141-4.3,9.61-3.23c-0.181,1.431-0.36,2.86-0.53,4.3
	c-0.92-1.06-1.77-2.189-2.789-3.149c-1.591-0.96-4.33,0.04-3.99,2.16c1.89,2.329,5.09,2.979,7.109,5.17
	c1.439,2.03,0.45,4.989-1.619,6.18c-2.381,1.521-5.271,0.55-7.841,0.19c0.101-1.19,0.29-3.551,0.38-4.73
	c1.461,2.471,5.24,6.07,7.381,2.2C136.082,64.391,128.132,65.01,128.572,59.95z"/>
<path fill="#603A17" d="M218.921,57.09c2.211-1.67,5.08-0.67,7.57-0.48c-0.189,1.461-0.369,2.921-0.55,4.381
	c-1-1.11-1.829-2.4-3.069-3.26c-1.73-0.74-3.73,0.319-3.86,2.25c2.46,2.16,5.489,3.55,7.88,5.8v3.329
	c-2.141,3.621-6.439,3.32-10.029,2.57c0.17-1.689,0.319-3.39,0.5-5.08c1.319,2.76,4.869,6.28,7.389,2.51
	c-0.649-3.939-5.709-4.159-7.629-7.239C216.613,60.08,217.352,58.09,218.921,57.09z"/>
<path fill="#603A17" d="M110.112,57.23c1.69-0.33,3.4-0.48,5.1-0.721c-0.12,3.82-0.49,7.68,0,11.49c0.77,2.99,5.34,2.08,6.119-0.47
	c0.621-2.9,0.201-5.89,0.11-8.82c-1.079-0.39-2.159-0.8-3.229-1.22c2.08-0.35,4.17-0.67,6.26-0.99c-0.221,4.12-0.27,8.24-0.18,12.37
	c0.789,0.18,2.379,0.53,3.17,0.71c-2.03,0.91-4.09,1.76-6.12,2.64c0.09-0.659,0.28-2,0.37-2.67c-2.33,2.32-7.01,4.08-8.98,0.431
	c-0.73-3.631-0.2-7.371-0.49-11.041C110.862,58.85,110.152,58.28,110.112,57.23z"/>
<path fill="#603A17" d="M85.458,61.138c0.145-1.473,0.592-4.35,0.592-4.35s0.321-0.055,0.312,0.368
	c-0.027,1.188-0.414,3.286-0.495,4.483c-0.289,3.71-0.881,11.135-0.881,11.135s-0.387,0.063-0.401-0.52
	C84.505,69.032,85.125,64.415,85.458,61.138z"/>
<path fill="#603A17" d="M179.421,63.08c0.23-5.17-5.6-8.45-10.139-6.57c-6.771,2.18-6.871,14.35,0.56,15.59
	C175.203,73.561,180.262,68.38,179.421,63.08z M177.037,64.5c-0.267,3.335-2.867,5.846-5.81,5.611
	c-2.945-0.238-5.114-3.132-4.847-6.467c0.267-3.335,2.868-5.846,5.81-5.609C175.135,58.271,177.304,61.165,177.037,64.5z"/>
<path fill="#603A17" d="M196.832,63.01c0.381-5.359-6.01-8.54-10.5-6.31c-6.619,2.63-6.119,14.78,1.531,15.479
	C193.142,73.29,197.742,68.141,196.832,63.01z M194.44,64.937c-0.473,3.092-3.198,5.241-6.087,4.799
	c-2.893-0.442-4.85-3.309-4.376-6.402c0.472-3.092,3.198-5.241,6.087-4.798C192.957,58.977,194.914,61.843,194.44,64.937z"/>
<path fill="#603A17" d="M216.001,69.46c-0.819-0.08-2.459-0.25-3.289-0.33c-0.24-6.92-0.18-13.84,0.199-20.75
	c-2.069,0.92-4.16,1.79-6.17,2.82c0.83,0.08,2.5,0.22,3.34,0.3c0.061,1.71,0.131,3.42,0.201,5.141
	c-2.341-0.261-4.98-0.811-6.961,0.859c-4.56,2.85-5.67,10.67-1.01,13.891c2.73,1.89,5.73-0.141,7.939-1.811
	c-0.119,0.64-0.34,1.93-0.459,2.57C211.902,71.33,213.992,70.48,216.001,69.46z M205.314,69.699
	c-2.256-0.188-3.91-2.558-3.698-5.292c0.213-2.737,3.327-6.558,6.021-5.63c2.841,0.979,2.352,3.569,2.141,6.306
	C209.565,67.817,207.567,69.884,205.314,69.699z"/>
</svg>
